<mxfile host="65bd71144e">
    <diagram id="K6tv0swqMAWiOsS7-SfT" name="第 1 页">
        <mxGraphModel dx="1009" dy="619" grid="1" gridSize="10" guides="1" tooltips="1" connect="1" arrows="1" fold="1" page="1" pageScale="1" pageWidth="850" pageHeight="1100" math="0" shadow="0">
            <root>
                <mxCell id="0"/>
                <mxCell id="1" parent="0"/>
                <mxCell id="2" value="" style="shape=image;verticalLabelPosition=bottom;labelBackgroundColor=default;verticalAlign=top;aspect=fixed;imageAspect=0;image=data:image/png,iVBORw0KGgoAAAANSUhEUgAAAPMAAAD2CAYAAAADO7GMAAAgAElEQVR4nO3da3CU153n8e95nqdvut9AIAkJJAM2V2NuBmyC7djrxU6cymxi4jETZ6oyO1OZTI2nampf5EVezNu5vJmt8ZRny5vxTDkVpzZxbFfWZGJslzcCArYAMwgsEBcBQvdrq6/P2RdPd6sF4iL10xe1/h+XAMndz3No+tfnPOec5xyltdYIIRY8I98FEEK4Q8IsRJGQMAtRJCTMQhQJCbMQRULCLESRkDALUSQkzEIUCQmzEEVCwixEkZAwC1EkJMxCFAkJsxBFwsp3ARYyrTVTU1MEg0Hq6uqIxWKEQiGSN6KZponf78cw5DNTZJ+EOQO2bXPlyhWOHDnCgQMHGBkZ4dNPP02Fubq6mu3bt1NZWZnnkorFQMKcAaUUAENDQ9y4cQOPx8Pg4GAqzEopYrFYPosoFhElixNkRmvN2NgYX375JTdv3pzRzFZKUV9fz2OPPZbnUorFQGrmDIyOjnL8+HGi0SiNjY2cPHmSs2fP0tnZyUMPPURvby8vvfQSe/bsSdXiQmSLhDkDU1NTdHZ2Mjk5ycqVK/mLv/gL3n33XYLBIC+99BIfffQRr7zySr6LKRYJaWa7YGJiguvXr6O15o033qClpYW2tjbefvttvvvd70rNLHJCauYMxeNxwuEwly5d4ujRo8TjcQ4ePMhHH31Ee3s7wWCQ3bt3A0igRVZJmDNg2zZXr17lV7/6FZ2dnYyOjvLnf/7naK2pqKhg8+bNbNy4Edu2MU0z38UVRU6a2RmYmJjggw8+4K233qK1tZWGhgZWrFiB1ppoNEosFqOuro7HHnuM8vLyfBdXFDmpmTMQj8epr6/nxz/+MTU1Nfzud7/j2rVrM4an4vE4tm3nuaRiMZCaOQvSX1KlFFpruV4WWSeThrMgGdxbfxcim6SZnSUSYKeFIg2/uVNKzev9I2EWWTM+Pk5HRwfnz5+XD7f7tGzZMh555BGWL18+5+dKmF1k2zbj4+OMjIzQ3Ny86N/AQ0NDHDp0iGPHjtHW1pbv4hS8wcFBysrKqKiokDDnWzQa5cyZMxw5coRXX30138UpCPX19bz88su8+OKL+S5KQdNa09HRwSeffDLvY1jJAy32WsQN8XicK1eu0N7eLmHWoDWgTDweLz6fL98luk3yar5Q3vkejwfDMObdz2CBdNa4Kb3TRz4kE4HO+CCgEy+jK6+mTgRZpb51/jjfsqYKlTiAvs9SuvzWkGa2yI5EOhRx5p+S6WO5+r6/0/EyPombnzhzJ2EWOZO+aMN0le12Uu+nIMlfEnVynltPqZZBhiTMIme01kQjYWKxyJ3DnN7+zRKFSpxDozHQygCVn/Fwj9eDx+Nx5VgSZpEzkXCInksX6L92CdNQiRzfHtxszzOJ4yWq/NgYxJWFTtXMuayhNdqO0dbazMqWJleOKGEWOTM+Pk5fz2UiA9fweExUMsy31Mw602vsewipEsaNasL4iRlxSNXUTm2dCwqIRaaoXxZy7ZgSZpETyV7+2tpqGlfW4veazLhuzaGQUc6YqieoSokq0/lASV1H54JzHjsSoq7SSn2MZErCLLJueoguceOJ1hhKodCJWjgR6EStnO3+KAONwsDGwCZxt5FK/ZITzt99+jVxYw673DUlcksr0Ab5nKqhZtSF+ej4UmlBdu91kDALkQdKu/9xJmEWIk+SFxhukTCLRccJkUoESbkeqntJNq5t5Xy5RcIsCkTu4qRR02PLOvfXzskPE7dJb7bIoUQdqJxbqvSts65UNt7is0jrLld5mE3qcP/DQ2pmkTMKUEqjsWeZGJK7mjE5CqWURqnkOPfCv7tNwiwKgKwT5gYJsxBFQsIsFgyNImobnLt4jS/OdqG1O2/fhd/AdkgHmFggFCPjE3T85wV+8f5vaKqv48EHH8TCnd1CVNpqJguV1MxiQdDApStX+MV77/LJ7z5leHKMuJv3ILu1HlEeSc0sFgQFlJaU8sjmzYyOhVBaoVy64cqdCKZPPclPFS9hFgvG6tZWljc0MzgwzvDQEEY+r3a1SludJNdzyGYnzWyxYCg0hradCSd5feveus5RYiJMnpYeSpKaWSwoyZsHczRXbIa+vj4uXeqmrq6OyckJQqEQGzas52L3RaaCQdatW0dJaVneetIkzGKBcKaAmkrTWF9FWYkH5VJP9v0aHByg4+TnrF27hv7+fkZHR2l7oJXz584zNDTEypWrKCkpz2mZ0kmYxQJiY3kUu7ZtIBaLYarchnl5QwNf2buPqqpKVra0EolEKC0p55FHthEOhykrqySfo9YSZrGgmIZJc3NzXs5dVVlFVWXVbT9vaVmZh9LcTjrARA4VRq/vzIUEF/hMkTQSZpEbWjtL6Gl79s6rW/drym5hZp4nD3nWyv2/qYRZ5IzS9l07rXK2S0xqcz+V6nnOdXvBWSDB3c8RCbPIqbsOxeZga5oZJ8vp+e7MrRJImEXhyGhfVSFhFqJISJhF4SiQZu9CJWEWokjIpBGRMxqFrZI7LaZ9JYZptNKJb7NbO083API37p22y5RrJZAwi9xQCq1MbAwntEqn7kdQtz4uazcqJOKjjOQ+jEw3TnO0lWvqNBqlnfO7tQ+mhFnkjNYQRxFVHiJYiTe2vmV39SwuZJ04TVRDXMdARZ1x7xzdvZh+DoWNqaMoTNeOL2EWOePxeYli0n1jGI9pktrG9ZbtTLMzeWS6SR1VY0ypUWLKB6jpD5UsmxlmsO0YpZ5GVHWpK8eXMIucKSsrp25ZIzd7jURTevZ9nrJzzTx9FkMpAsrEToQ4V/3nt23ggYnPMkn2ImRKwixyxvJ4aWhsoaGxJd9FKUoyNCVEkUjVzFprVM5mugtxt4alvA/nwwIJssglnfh1OszZHleevQQF9pHhQmEsQIIssi8tQen7E6f/6uY5Zv15ullPmZ+Yp0+hyYR0gImcCYWmuNR9gctXLqOUclqE6Ft6edX839T3+UStFLYysVGgM+/Nnt/zncKuXbuGVa2tzkq9GZZDwixyZnJ8jGuXztN/tQufZThh1unxTQxVZXnIN2b4mTQqCGlfcjbpLIPb9/vJML8QKiAej7JkWSOtLk3plDCLnNF2jMb6arat2U2pz3SlNpqPkFHOkLGMSV3u7CSpVM6XulYaYtEpllSYTK9HlhkJsyhA862n5haIZI1cLMshSJhFgZnnROlMqtY89f+6PR9cwiyyLjn0lJwCrVAofZdJjFlu8zq3QCamk+a5WnbzbyphFlkx4+aJ5Ds2tceaShtbvn1mdi4490/nd8Uxt88v0znFInXrrZcLn4RZiCIhYRaiSEiYhSgSEmYhioSEWRS42TupCqE32i3apWWLZGhKZIVSKvU1/cOZd+jdexKjTvuTM1NrKhJjIhTF6/NS6rewlJ3B5ItCultwuizzvYtR7mcWWZV6X6nk5JH01aLvN4XO5I7TZ7v4zSfHGJoMUxoo4dFHHmTP9vX4zQxWuNQqN0tz3sWMz7sMcijNbLEgXL/Ryy9/dYj2//c5JYbBhbNn+T/v/Jqu7qtFtmX6/EmYRQFLxFRr+vv6iccjfOu/7ed/vPrf+dqz++jvu8mZ/zxHRvdA3xe3lg/ILllpRBQ+pWhoWM7XvvYMS5Yt52rvTU6e7cLvC9DUsCxHQZ5RoKyecb6kA0wsCEvrl+Itq+SzU+f47YefcLN/gGeeeZLNGzaAaytPL2wSZlH4FNy4cYPDn37Ghcs3qa6qZO+e7ezcsRWfz4vW8SztgpFGa+LxOLFYDNOwiNtxtNb4fH7CkTB23Mbv92GY+YuUhFkUtOQQ7LnzX/LvP/0ZeKvZ9eg2PjvVycWLl9m5dQNbNq1nevAqeyXpvd7DmS/O0LSimZHhYcYnJtn92B5OnjzJxPgEu/fsobKyKm9tBAmzKFjOxBBnWKq2bglf2fs4fSNTDI+MABo7FiUcDida2dmNkEpsRavtONg204uV6USrIP/NfAmzKHgKxdrVa1i1qo3kFqgAhgKfZSS2RnVrJa3bz548dmPTCpYva0QpE62dkXLTa7Hz0V3ouMb0WNjonK8DniRhFgXOiajHY+H1mHfYam46zNkpguFMLDEsTG/ie6YXRLEsL1j5r5tlBpgoWNOtV40T2LuP9Wb3HTy9a+WdTpTvBEnNLAqaSg073b3ey04TO1mIgtzQ5jYyA0wUuHs3XnO95nWhkjCLhW8+F6taFd2cbgNkOqdY2OYeykSQEztq5PmmKddIzSxEkZhzB5ieZXBeanbhqmxMALnXe3S+F94FVK07YdbJDbCnJbfcvBvbdsb3DGO6gr+f5832mNk+EOLxOKZpznisbduYiZvRtdZorWecXxS+9NzM9k7JRofW7Yc0nC+tUrtbzOviO6P9Z929arfQMDY6xuuvvw6Gwufz8eyzz/LOO++kHmQYBk1NTTz//PMEg0Fs20ZrzejoKB988AEHDhwgHo87B7QsamtrGR0d5Y033rgtpH6/n02bNvHoo48SDAY5duwYgUCAHTt2MDAwwJdffklPTw/Xr18HYPfu3ezcuROAvr4+3n//fQ4cOEAsFuPcuXMMDg7yxBNPYBgGhmEwMDDAv/3bv93+0mmNaZq0trby9a9/3bUXUMzH3d7Emcygutvzbk3dzOGuO83rLpx6994sjWZ8fIx/eu2f+PoLL3D16lUefPBB3n77bZ566ikATNOkoqKCgYEBjh07RjQaJRaLEQqFOHToEFNTU6xYsQLDMKiurubpp59mdHSUf/iHf2DTpk0zTuj1ehkcHGTXrl1orRkYGOCjjz5ieHgYpRQff/wxFRUVTE1NUVpamqr9Q6EQJ06c4M0336Snp4dwOMyZM2cYHBzk6NGjlJSUsHXrVmpqanjttdd44YUXCAaDXLhwgYqKClasWEF/fz9HjhyRMOeRUgYKA6UMdGqj9RltQuYfoXt9CKSPFxsoQzmbvaOdDS7u8Pw7l0bf8xF3f6q7Cx6kZoBVVVbxwx/+kPfeew/LstiwYQN//dd/nWrKWpZFOBzGNE1++tOfsm3bNk6cOEFjYyOnT5+murqawcFB2traSB7T5/PxzW9+c8YJp6am6O3tBaC0tJQnn3ySkZERent7UUrh8Xj49re/TW1tLYFAAMtyrgSGhob49a9/zf79+wkGg4yMjBAMBolEIvT391NWVkYsFkNrTW1tLX/1V3+Vqsmbm5vZt28fJ06c4I033nDtxRP3L3nTRE9vP6c7LhPwpF9a2bc8cO5v8Hs2zdV07RtW5YypJYRVKanZZXfaw47s1M4KiMei7NzyIPU1a1w5prPSCIrx0THe/Nd/5dKly6x78CHOnz/P66+/nprq+fLLL7Ns2TK2bdvGj370I/bt20dHRwebN2/GNE2am5uZmppi69atAHg8HpqbmxkaGkqdLPnBsGTJktT3Pp+PP/iDP6Cvr4+PP/6YL774gp///OfE43GUUtTX1/Od73yHTz/9lGPHjvHDH/6QyclJfvKTnxAIBJicnCQQCFBZWcmjjz5Kd3c3g4ODvPnmmwSDQU6fPs3Fixfp6enh2rVr97yeF+5LvuKBklIqlzQwFgxhG8kw31oT6+z8G6WF3cBDKRb+GVNEZ2/c30+Y53dRoNDaQ8Bnpb7PlKVQBAIBNmzYwOEPP2TNmrWgNQYKbduEwxHaj7Tz7LPPsnTpUizLorm5matXr1JSUsL4+Dgej4fz589TV1eHbdtEIhE6Ojqora2lq6uLvr4+bNumubkZwzBYs2YNx48fZ8uWLUSjUS5evMjnn3/OzZs3qampYXJykvb2dmpra/nqV7/K8PAwx48fJxAI4Pf7OXv2LO3t7Xi9XkZHRzl37hwDAwP8yZ/8yW1/weT1fbIWSF7bi9wrLS1ny9btPLJtB6Du2MGcUZ/SnNw7QLd3DbtIuXt/laXRxG2b+qVLqFtShwLC4TCVlZW0NLcQDAapKC9Ha526Ri4pKeHs2bMADA4O0tjYyOHDh9mwYQODg4OUlZURDoe5fPkySin6+/tpa2vjypUr+Hw+BgYGWLVqFUo5HW5Xrlzh3Xffpby8nB/96EfU1dUB0Nrayh/90R8xOjrKli1buHTpEkopqqur2bx5M0NDQ9TW1rJ9+3auX7+Ox+NJ9W77fD4ikQimaeLxePD7/fh8PhdfOnG/Ut1dhkJx72Vx5/0Gz1oveJb3i3apJWJorQkGg5w//yUAyjBAKcKhEL03bjA8PMzDmzZTU13DVHCKX/7ilzz88MNs3LgRrTVPPfUUN27c4OGHH6ajo4PBwUH8fj9bt24lHo+nhpdaWloIBAIEg0G6urp4+OGHU0NKtm0Ti8UYHh7mgQcecMqR+NhOdqpt27YNnVi6JRwOc+PGDSKRCHv37mXXrl0cPHiQQCCAUgqv10ssFkt1nkWjUSKRCNFoVIaxRMG5bbOAebKUUhjKSHU+rVu3jsnJCdra2njxxRdRhsI0LaqqKhkeGiYWifD888/zi1/8gqamJlatWsU777zD7t276erqwrbtVKC2bNnCvn37+OSTT1BK8b3vfY9//ud/Zv369dTW1qK1Zmpqio6ODmKxGPv378fr9c66G4JhOGU0TZPKykp8Ph/Dw8Ps37+f1atXp16UQCDAE088wV/+5V/S39/Pz372M5qamti/fz9Hjx7l7//+7zN+0UTm7lYXyRSk+bFi0RinTp3k2rVrYCg8Xg8lpSV0dXXx3vvvJR7mhOTpp59GGQaWZXHlyhW2bduGYRg899xztLe3Mzk5iWEYjI+P8/bbbzM6Osrly5cZHBwkFAqxcuVKzpw5w5YtW+js7GTVqlX85je/4cKFC6xcuRKlFIcPHyYcDmMYBmNjY5w4cYKtW7eilMK2baamppiamqK8vJze3l7eeust1q1bx8qVK6murqavr4/nnnsO0zRn1MI9PT18+umnlJWV5eeVFtl36wjXXJ93j8kss5n3B08W7qq0dKL38OvfeIFlDctpXdVKS3MzFy9eZHho2BkLRBEuLcXr9bBx4wZqamr4/ve/T1VVFbW1tTzzzDP84z/+I62trVRXVwNQUlLC448/jmVZrF69GsuyGBkZ4eDBg4TDYTo7O2loaGBkZIRvf/vb1NTU8Nlnn9Hd3Y1SiubmZpRS9PT0sHXrVnw+Hw888AChUIgvvviC9evX88wzz9DV1cXFixcZGRmhtraW5uZmNmzYAEAgEGDTpk1UVFQQDoexLOu2oTKRXcnldZzfNfFolHg0mvp/t8qsSyhtbyql7jhunDxT8nftbIKV+snt00vu3MOe6fQWj9eDx+POsgKWx+Ph8a/s5fGv7KWysgqAaDTCytZVzjVnYtaZUgalpSUc+M53WLJkCY2NjYDzDxIOh/nGN75BRUUFtbW1WJbFH//xHwMQi8W4ceMGoVAIy7JoaGhgfHycoaEhysrK2L9/Pw0NDdi2zZo1awiHw6lhqWTTH6C6upoXX3yR5cuXs23bNlpaWli6dCnhcJjr168zNjaGYRisXr2aQCAAOOPYO3fuTNXqBw8epLa21pUXTtybRmEbFlo563YFJyYYH+7Db2g8hmJ69ZB0mUxxTDvWbGFODEbHlIcQJcTxpIKcGIiefnraoe4W5vlSCmw7TkU5VCbCbGMQx0JjzGu1BUspRWVV1YwferxeKr3eWZ+wYePGWwql8Pv97Nmz57afw/R4czq/358aa07/f8uXL79jQUtKStiyZQtAqrc7eazW1tZZn2MYRirYyWOI/DBQhIKTjA304q/w4vVZKOzEBnK5LkwFUVVOSPtIDMICt7R8s1wshSYaDeEP2Klz3rpj5lzJskEiaxQaU8cxdHKGlwY7jqFjGFqhZq2Zs2XmPGxniMx0vkvu86zTHpnlXjiFxsaYMdlN6TgmscTrMncSZpFTCo2BxsBm9ma286islkFrtJo+t9ZOoHPaja7TR7DdWcFMBl1FHuhbvnJ/fuVcCTu1ct7GwpxPELdOLzWzyK1EeKbrotyvxJU8r1YqsWj99E/zw51zS80sRF5aCNPndOvMEmaRY8mrxMV995rTOtGurjciYRZ5kuyxXcSTN11eO0/CLEReVtB2/3wSZiGKhPRmiwKW3jFlkOoKT65OouY3uaJYSZhFYVPT07KSU02cYGuU1qjE/3d+srhJmEWBc64tbQ3HPzvFf3zSTsyGgN/Lzq2b2b1zC5ayF32QQa6ZRT7cd/IUzsbmBpcvXeW99w/xn50X8Xj9nDzdyaHDv2MqEnUetiB7xZWr/WBSMwvXzTrTWKV+SdzocP/1iNYwPhVk2Yomnvyvz7Nty3r+1//+dy50XyEStdF+w2mOL7i9XWf2ome6dJDUzMJV91PpKp3cteJ+3rzOPOrm5iaef/4ZDCPG//yn1zj6+8+pqqrB6/UtyDoZnGFmN8suYRYLgmVZlAR8lJd6KS/zUb+0irHxETrPngfMBVgrJ7hYbAmzKHg2cOZcF+99cJjyylq+/71X2Lt7B0P9/Vy/1puTMphoTDuKjobQ8Rh2LIodizq3U8Zj6HgUdH6HyuSaWRQwZzxZKY0dj/HZ8c851XGelS3NnDl7lrraOtavW43Gzuo1s9JgKMW1nqucPNVBY3MLo6OjTExOsOexvZzqOMnExDiP7t5DWUUV+ZqiKjWzKGDOFbhC8dDqNv7Lk49RV1nCxMQoba1NPLd/HyualyYWGshuKeJaoU0PptePMj0YlgdlerExUKaJYVlgKNfnW8+F1Myi4CkNlRWlfPWJXTy642Ei0Rh+v4+y0hJMM7nmTxZDpJxx7vrlTdTW1zs7WGobrcG0PDyyfaezRJLlyevMFQmzKHgaJ9A+y8JbWZFY/tmpsbWzveQ8jjjHhauVBqWwDG/iuYn1wwCP5Znj+bNDwiwKnLrtu/SFdtR8akKVeOK8a3Q1y5/yT66ZhSgSEmYhioSEWYgiIWEWokhImIXIJxeHsqQ3W7gqsQbInenkrRO57hNOu0lSa5L7wqStW5JzLu9FJ2EW7ps1mnrm7zqRIIN7bb3qphlbO848a17GmJwPldRWshmmW5rZQuSJE173qmepmYXISCZhdLedLWEWOaNtiCuLqLIwbDPRvDRmNLMVdpZavNPBCcUhThjD8GMbhjM9VOv5zSbLgNJR0KZrx5Mwi5zxB0oxA5XcGB3HNKf3WZqOr0ZhY2T5+jViR4jaETDH0IaBVvGcBxnAjsWJBZYCZa4cT8IscqakrJT6hibGx8dTP9OpHZccudhbQqOxtUJhogznJ/mhKC8NuHY0CbPIGdM0qayqorKqKt9FmfGJMcf7pwqWhFnkxnRL+s7/L8d02p8yK0JhfAxImEVuFcb7HpieLJLcZHb+RykMEmaxqKm0XzM5QiGQMAsBFFIo50vCLHImFo0y0NfLwM0bidnZyavV9CDpOS0fou4QQo2+bXpkcscIG4O48gJGYnnc3O/PnFzpqLFhGfVLl7hyTAmzyJngxATDvdfQE4N4PEbalqy3hJm7rbaZHtC7B/D2MDu/T+FnQlVhGwGUVmitQBl3/GDIBq008ViUmkjctWNKmEXOhCNhlI7SvKya0hIPqFiiIk4LkbrHfGUXbjWaUGUMGsuIqnInyFon9orJ7a0KsfAUgRL3FgOUMIvc0Mk9puy0Tqd4ooFrzHzg3bhQeZqGgcfwENOexJp+NlrluqmtQZmgjBm3g2Zy55SEWeSWTv/DLOHJwZ5RKu32x+mt2pm9PNkrRaIloFIvSaZ/dQmzyKnb36+573xyNnROdpCpvC1O4AR6epR7XkuAp5H7mcXipRJRXvijUoCEWSxiRZLhFAmzEHncH8pNEmYhioSEWYgiIWEWuaWY0YFdbNetGUl0ac93rFnCLHJPKRQqNdlrzoFWKjXPuthkMmlEwiwWnOKMceYkzGLB0IDWii8vXuaX//dDzpy/zMz9KBZ3zCXMYuHQMD4xxX988nveeOs9zl+4xnSAF3eQQaZzigVCa42t4ciJU/z246N4LD92rEgGiF0iYRYLgCIUifD/fneC33/eyZZHNjI0NJS2iEHuQq3ST6dILbEwy6MyPMncSTPbZaqIe1oz54xJqTmEz7lpEk6dPsMv3/01GsWKpnpGx4fp6b1Gf/8A83v3q/n1pOu00TWd2Alj+jaJWb7ucbDZeq/n+dkkNXMWSJjdoVGJ+4wNhkZGGRkbxxoY5NL1y5zrukxwbIota5pYsnR3IhT3+7pPBzm5LsFc8pNsEGjl3MCo7/jse6yEMsujM3nnSJhFYdPObYIbNmzguy/7icc1X3ZfIDg2QVtLC42NDYlUZPcDVCnF5cuXOX3yFKuaWxgdGWVsYpQ9j+2h41QHYxNjPLbnMSoqKrNajruRMIvCpzUNy5fRuHw5YLPqQiPlZbW0Nq9iVWsrd18zzD3BySB9N/tYUlPL0PAQwyPDxOIxhoaGGBkdIRKNYGsbQ7m3GdxcSJhFwVKpxf1U2oKdmoZlS3lybymlgZL0dTqyWhatNQ2NDTz19FNUlFfQ0rqSaDRGaVkF23c8SiwWpbysMrEEUn6GyyTMoqCpWTqSykv8lJf4ZzwqFyoqKqioqLjt58uXN+Tk/PcivdlCFAkJsxBFQsIsRJGQMAtRJCTMQhQJCbMQRULCLESRkDALUSRk0ohYnFRiD+fEpJRc3xk9vSnNzLVSMiFhziK5e2o2t98emJ8lBjRaxZ37OLSaEa5clgHl3geJhFnkUHI5TgOd2DRNJzZxm5b9vZ80JkobGMoGbTgbrmf3lLOXQuvUjpRSM4sFpaS0jHDNMkbiUwSjVupG4luXl812iyaORVQF0cpIhCk/LSiPtvGocteOJ2F2UfJNKc3rWSgIlJZiWM2EwmGUym/faykKW7lbM86VoRR+v8+1e6wkzC5Ir1m01ti2PeN7CbdDGQb+QAn+QEm+i1Jw3HiHyNBUhqLRKCNjo8TseGr9L9u20VrT19fH0aNH811EsUhIzZwhpRTdF7v56Vs/ZcBd7VYAAATtSURBVOvWR4hEIoyPj/P+++9z8uRJ9u3bJ7WzyAkJc4ZM00TbNh9++CGHDn1AdXU1nZ2d/M3f/A01NTX84Ac/yHcRxSIhYXZBS0sLL7zwdX784x+nrp9jsRhPP/30rCtTCJENcs3sgurqap588kkeeughlFIYhkFraysHDhzAMAxpYouckDC7wDRN1q5dyx/+4R9iGAbV1dXs27cvFe7FbLYtSrXWs365db65fBWSTIc2pZmdoeQLX1NTwxNPPMFDDz1ESUkJBw8edK6nF+nY892Cc7cQZfI6ZRLQfPz7zDZZJpNySJhdYhgGq1ev5gc/+AHd3d2sW7du0QU4XfLvHo1GuXbtGh0dHcC9NxPPNMzzkc9/p2SZDcOgq6uLiYmJeR9L6UJrayxgtm0zNDTEzZs3Wb9+fb6Lkxfpw3AjIyN0dnYSCoWoq6vLc8kKm1KKiYkJQqEQbW1tNDU1zf0YEmb3LPbxZBubGFEUCg9ebNsmFovNucac7fE2yWa0s2Gbac7s7pnL6x63k0vrg4HGMArn30wphWmamObcd8WQZraLFnOQk7TWaOXMgDMMA6/X69pxbUhs+OYce75s7czFTu3mWCT/bBJm4RpDG1hY2HfZ+ym9QywejwPcV+CVUpiQmMScWfoKqCJ2lQxNCfcoMJSJeZc6QmtNLBbj4sWLnDlzJqMaVswkNbNwlUr8d7fK07Ztzp07x2effUZpaSlr1qzJXQGLmIRZ5FSyiT02NsahQ4fo7u7mW9/6Fk899RQ+ny/fxVvQJMwiL7TW9PT00N3djW3b+Hw+Hn/8cTwej3QkzpOEWeRUcpaTZVk0NjZSU1NDW1sbHo+HSCSCZVkS5nmSMIucs22bNWvW8Gd/9mecP38er9fLpk2bJMgZkjCLvGhqaqKurs5ZqWVkhMrKykU/6SZTEmaRU8kmtt/vx7IsduzYweTkJOPj45SWlua7eAuaTOd0wdjYGD09Paxbty7fRVkQbNtOTRhJTvlMzhabzzRG4ZCa2QXXr1/ntddeY+3atfT29mIYBlprysrK2LFjB/v27ct3EQtKcsGGZJNahqTcIdNvMhSLxTBNk127dhGPxzl69CgbN25k48aNLFu2jP7+/nwXsSDJtbH7pGbOUHd3N++99x5/+qd/Snt7O4cPH+ab3/wm4XCYq1evEolE8l1EsUhIzZyBgYEBfv7zn/Pb3/6WQCBAWVkZ1dXVRKNRhoaGOH36NC0tLfkuplgkJMwZGBwc5NSpU6nALl++nLVr1/L6669z+fJlPvjgA+mhFTkjYc5AfX09X/va12hsbARg6dKl7N27l46ODn7yk5+wc+dOuStI5Iy80zJQVVXF1q1bU4H1er1UVFRw9epVjhw5QmVlZZ5LKBYTCXOG0m+07+zs5F/+5V+ora3lpZdeor29nb6+vnwXUSwSEmYXRCIRjh8/zt/+7d9SXl7Oq6++yiuvvMKDDz7I3/3d39HV1ZXvIopFQGaAZai/vz/Va33ixAm2b9/OqlWrALhx4wa///3v2blzJ/X19XkuqSh2EuYMxeNxwuEwfr8f27axrJlD97ZtZ7y4uRD3Q8IsRJGQa2YhioSEWYgiIWEWokhImIUoEhJmIYqEhFmIIiFhFqJISJiFKBISZiGKhIRZiCIhYRaiSEiYhSgSEmYhioSEWYgiIWEWokj8f5kwicl4wg0dAAAAAElFTkSuQmCC;" vertex="1" parent="1">
                    <mxGeometry x="120" y="30" width="243" height="246" as="geometry"/>
                </mxCell>
            </root>
        </mxGraphModel>
    </diagram>
</mxfile>